<mxfile host="app.diagrams.net" modified="2022-03-29T06:04:56.352Z" agent="5.0 (Macintosh; Intel Mac OS X 10_15_7) AppleWebKit/537.36 (KHTML, like Gecko) Chrome/99.0.4844.83 Safari/537.36" etag="eE54UE39k-vnXNNssiUy" version="17.2.4" type="github">
  <diagram id="C5RBs43oDa-KdzZeNtuy" name="Page-1">
    <mxGraphModel dx="1186" dy="771" grid="1" gridSize="10" guides="1" tooltips="1" connect="1" arrows="1" fold="1" page="1" pageScale="1" pageWidth="827" pageHeight="1169" math="0" shadow="0">
      <root>
        <mxCell id="WIyWlLk6GJQsqaUBKTNV-0" />
        <mxCell id="WIyWlLk6GJQsqaUBKTNV-1" parent="WIyWlLk6GJQsqaUBKTNV-0" />
        <mxCell id="Vc-2eKz6okamP6ZfYOzD-35" value="" style="whiteSpace=wrap;html=1;aspect=fixed;dashed=1;fillColor=none;" vertex="1" parent="WIyWlLk6GJQsqaUBKTNV-1">
          <mxGeometry x="650" y="130" width="550" height="550" as="geometry" />
        </mxCell>
        <mxCell id="Vc-2eKz6okamP6ZfYOzD-1" value="点击按钮" style="rounded=1;whiteSpace=wrap;html=1;strokeWidth=2;fillWeight=4;hachureGap=8;hachureAngle=45;fillColor=#fff2cc;sketch=1;strokeColor=#d6b656;" vertex="1" parent="WIyWlLk6GJQsqaUBKTNV-1">
          <mxGeometry x="310" y="80" width="120" height="60" as="geometry" />
        </mxCell>
        <mxCell id="Vc-2eKz6okamP6ZfYOzD-2" value="" style="curved=1;endArrow=classic;html=1;rounded=0;" edge="1" parent="WIyWlLk6GJQsqaUBKTNV-1" source="Vc-2eKz6okamP6ZfYOzD-1">
          <mxGeometry width="50" height="50" relative="1" as="geometry">
            <mxPoint x="370" y="190" as="sourcePoint" />
            <mxPoint x="370" y="210.71067811865476" as="targetPoint" />
          </mxGeometry>
        </mxCell>
        <mxCell id="Vc-2eKz6okamP6ZfYOzD-5" value="" style="edgeStyle=orthogonalEdgeStyle;rounded=0;orthogonalLoop=1;jettySize=auto;html=1;" edge="1" parent="WIyWlLk6GJQsqaUBKTNV-1" source="Vc-2eKz6okamP6ZfYOzD-3" target="Vc-2eKz6okamP6ZfYOzD-4">
          <mxGeometry relative="1" as="geometry" />
        </mxCell>
        <mxCell id="Vc-2eKz6okamP6ZfYOzD-6" value="是" style="edgeLabel;html=1;align=center;verticalAlign=middle;resizable=0;points=[];" vertex="1" connectable="0" parent="Vc-2eKz6okamP6ZfYOzD-5">
          <mxGeometry x="0.025" y="-1" relative="1" as="geometry">
            <mxPoint as="offset" />
          </mxGeometry>
        </mxCell>
        <mxCell id="Vc-2eKz6okamP6ZfYOzD-8" value="" style="edgeStyle=orthogonalEdgeStyle;rounded=0;orthogonalLoop=1;jettySize=auto;html=1;" edge="1" parent="WIyWlLk6GJQsqaUBKTNV-1" source="Vc-2eKz6okamP6ZfYOzD-3">
          <mxGeometry relative="1" as="geometry">
            <mxPoint x="510" y="240" as="targetPoint" />
          </mxGeometry>
        </mxCell>
        <mxCell id="Vc-2eKz6okamP6ZfYOzD-9" value="否" style="edgeLabel;html=1;align=center;verticalAlign=middle;resizable=0;points=[];" vertex="1" connectable="0" parent="Vc-2eKz6okamP6ZfYOzD-8">
          <mxGeometry x="-0.2" y="2" relative="1" as="geometry">
            <mxPoint as="offset" />
          </mxGeometry>
        </mxCell>
        <mxCell id="Vc-2eKz6okamP6ZfYOzD-3" value="是否登录" style="rhombus;whiteSpace=wrap;html=1;strokeWidth=2;fillWeight=-1;hachureGap=8;fillStyle=cross-hatch;fillColor=#fff2cc;sketch=1;strokeColor=#d6b656;" vertex="1" parent="WIyWlLk6GJQsqaUBKTNV-1">
          <mxGeometry x="310" y="210" width="120" height="60" as="geometry" />
        </mxCell>
        <mxCell id="Vc-2eKz6okamP6ZfYOzD-59" value="" style="edgeStyle=orthogonalEdgeStyle;rounded=0;orthogonalLoop=1;jettySize=auto;html=1;fontSize=12;" edge="1" parent="WIyWlLk6GJQsqaUBKTNV-1" source="Vc-2eKz6okamP6ZfYOzD-4" target="Vc-2eKz6okamP6ZfYOzD-58">
          <mxGeometry relative="1" as="geometry" />
        </mxCell>
        <mxCell id="Vc-2eKz6okamP6ZfYOzD-4" value="自助流程" style="whiteSpace=wrap;html=1;fillColor=#fff2cc;strokeWidth=2;fillWeight=-1;hachureGap=8;fillStyle=cross-hatch;sketch=1;strokeColor=#d6b656;" vertex="1" parent="WIyWlLk6GJQsqaUBKTNV-1">
          <mxGeometry x="310" y="1020" width="120" height="60" as="geometry" />
        </mxCell>
        <mxCell id="Vc-2eKz6okamP6ZfYOzD-12" value="" style="edgeStyle=orthogonalEdgeStyle;rounded=0;orthogonalLoop=1;jettySize=auto;html=1;" edge="1" parent="WIyWlLk6GJQsqaUBKTNV-1" source="Vc-2eKz6okamP6ZfYOzD-10" target="Vc-2eKz6okamP6ZfYOzD-11">
          <mxGeometry relative="1" as="geometry" />
        </mxCell>
        <mxCell id="Vc-2eKz6okamP6ZfYOzD-13" value="正常登录" style="edgeLabel;html=1;align=center;verticalAlign=middle;resizable=0;points=[];" vertex="1" connectable="0" parent="Vc-2eKz6okamP6ZfYOzD-12">
          <mxGeometry x="-0.175" y="3" relative="1" as="geometry">
            <mxPoint as="offset" />
          </mxGeometry>
        </mxCell>
        <mxCell id="Vc-2eKz6okamP6ZfYOzD-15" value="" style="edgeStyle=orthogonalEdgeStyle;rounded=0;orthogonalLoop=1;jettySize=auto;html=1;" edge="1" parent="WIyWlLk6GJQsqaUBKTNV-1" source="Vc-2eKz6okamP6ZfYOzD-10" target="Vc-2eKz6okamP6ZfYOzD-14">
          <mxGeometry relative="1" as="geometry">
            <Array as="points">
              <mxPoint x="570" y="380" />
            </Array>
          </mxGeometry>
        </mxCell>
        <mxCell id="Vc-2eKz6okamP6ZfYOzD-16" value="虚拟登录" style="edgeLabel;html=1;align=center;verticalAlign=middle;resizable=0;points=[];" vertex="1" connectable="0" parent="Vc-2eKz6okamP6ZfYOzD-15">
          <mxGeometry x="-0.175" relative="1" as="geometry">
            <mxPoint as="offset" />
          </mxGeometry>
        </mxCell>
        <mxCell id="Vc-2eKz6okamP6ZfYOzD-10" value="触发auth事件" style="rhombus;whiteSpace=wrap;html=1;strokeWidth=2;fillWeight=-1;hachureGap=8;fillStyle=cross-hatch;fillColor=#fff2cc;sketch=1;strokeColor=#d6b656;" vertex="1" parent="WIyWlLk6GJQsqaUBKTNV-1">
          <mxGeometry x="510" y="210" width="120" height="60" as="geometry" />
        </mxCell>
        <mxCell id="Vc-2eKz6okamP6ZfYOzD-27" style="edgeStyle=orthogonalEdgeStyle;rounded=0;orthogonalLoop=1;jettySize=auto;html=1;exitX=1;exitY=0.5;exitDx=0;exitDy=0;entryX=0.5;entryY=0;entryDx=0;entryDy=0;" edge="1" parent="WIyWlLk6GJQsqaUBKTNV-1" source="Vc-2eKz6okamP6ZfYOzD-11" target="Vc-2eKz6okamP6ZfYOzD-25">
          <mxGeometry relative="1" as="geometry">
            <Array as="points">
              <mxPoint x="960" y="240" />
            </Array>
          </mxGeometry>
        </mxCell>
        <mxCell id="Vc-2eKz6okamP6ZfYOzD-11" value="jsbridge" style="whiteSpace=wrap;html=1;fillColor=#fff2cc;strokeColor=#d6b656;strokeWidth=2;fillWeight=-1;hachureGap=8;fillStyle=cross-hatch;sketch=1;" vertex="1" parent="WIyWlLk6GJQsqaUBKTNV-1">
          <mxGeometry x="760" y="210" width="120" height="60" as="geometry" />
        </mxCell>
        <mxCell id="Vc-2eKz6okamP6ZfYOzD-26" value="" style="edgeStyle=orthogonalEdgeStyle;rounded=0;orthogonalLoop=1;jettySize=auto;html=1;" edge="1" parent="WIyWlLk6GJQsqaUBKTNV-1" source="Vc-2eKz6okamP6ZfYOzD-14" target="Vc-2eKz6okamP6ZfYOzD-25">
          <mxGeometry relative="1" as="geometry">
            <Array as="points">
              <mxPoint x="900" y="380" />
              <mxPoint x="900" y="590" />
            </Array>
          </mxGeometry>
        </mxCell>
        <mxCell id="Vc-2eKz6okamP6ZfYOzD-14" value="jsbridge" style="whiteSpace=wrap;html=1;fillColor=#fff2cc;strokeColor=#d6b656;strokeWidth=2;fillWeight=-1;hachureGap=8;fillStyle=cross-hatch;sketch=1;" vertex="1" parent="WIyWlLk6GJQsqaUBKTNV-1">
          <mxGeometry x="760" y="350" width="120" height="60" as="geometry" />
        </mxCell>
        <mxCell id="Vc-2eKz6okamP6ZfYOzD-33" value="" style="edgeStyle=orthogonalEdgeStyle;rounded=0;orthogonalLoop=1;jettySize=auto;html=1;" edge="1" parent="WIyWlLk6GJQsqaUBKTNV-1" source="Vc-2eKz6okamP6ZfYOzD-25" target="Vc-2eKz6okamP6ZfYOzD-32">
          <mxGeometry relative="1" as="geometry" />
        </mxCell>
        <mxCell id="Vc-2eKz6okamP6ZfYOzD-34" value="成功" style="edgeLabel;html=1;align=center;verticalAlign=middle;resizable=0;points=[];" vertex="1" connectable="0" parent="Vc-2eKz6okamP6ZfYOzD-33">
          <mxGeometry x="-0.2889" y="-2" relative="1" as="geometry">
            <mxPoint as="offset" />
          </mxGeometry>
        </mxCell>
        <mxCell id="Vc-2eKz6okamP6ZfYOzD-40" value="" style="edgeStyle=orthogonalEdgeStyle;rounded=0;orthogonalLoop=1;jettySize=auto;html=1;fontSize=24;" edge="1" parent="WIyWlLk6GJQsqaUBKTNV-1" source="Vc-2eKz6okamP6ZfYOzD-25" target="Vc-2eKz6okamP6ZfYOzD-39">
          <mxGeometry relative="1" as="geometry" />
        </mxCell>
        <mxCell id="Vc-2eKz6okamP6ZfYOzD-41" value="&lt;font style=&quot;font-size: 12px&quot;&gt;失败&lt;/font&gt;" style="edgeLabel;html=1;align=center;verticalAlign=middle;resizable=0;points=[];fontSize=24;" vertex="1" connectable="0" parent="Vc-2eKz6okamP6ZfYOzD-40">
          <mxGeometry x="-0.3" y="4" relative="1" as="geometry">
            <mxPoint x="-25" y="-1" as="offset" />
          </mxGeometry>
        </mxCell>
        <mxCell id="Vc-2eKz6okamP6ZfYOzD-25" value="登录状态" style="rhombus;whiteSpace=wrap;html=1;fillColor=#fff2cc;strokeColor=#d6b656;strokeWidth=2;fillWeight=-1;hachureGap=8;fillStyle=cross-hatch;sketch=1;" vertex="1" parent="WIyWlLk6GJQsqaUBKTNV-1">
          <mxGeometry x="920" y="545" width="80" height="80" as="geometry" />
        </mxCell>
        <mxCell id="Vc-2eKz6okamP6ZfYOzD-42" style="edgeStyle=orthogonalEdgeStyle;rounded=0;orthogonalLoop=1;jettySize=auto;html=1;exitX=0;exitY=0.5;exitDx=0;exitDy=0;fontSize=12;" edge="1" parent="WIyWlLk6GJQsqaUBKTNV-1" source="Vc-2eKz6okamP6ZfYOzD-32">
          <mxGeometry relative="1" as="geometry">
            <mxPoint x="370" y="1020" as="targetPoint" />
            <Array as="points">
              <mxPoint x="370" y="745" />
              <mxPoint x="370" y="1020" />
            </Array>
          </mxGeometry>
        </mxCell>
        <mxCell id="Vc-2eKz6okamP6ZfYOzD-32" value="authUpdate方法/reload页面" style="whiteSpace=wrap;html=1;fillColor=#fff2cc;strokeColor=#d6b656;strokeWidth=2;fillWeight=-1;hachureGap=8;fillStyle=cross-hatch;sketch=1;" vertex="1" parent="WIyWlLk6GJQsqaUBKTNV-1">
          <mxGeometry x="900" y="715" width="120" height="60" as="geometry" />
        </mxCell>
        <mxCell id="Vc-2eKz6okamP6ZfYOzD-36" value="Text" style="text;html=1;strokeColor=none;fillColor=none;align=center;verticalAlign=middle;whiteSpace=wrap;rounded=0;dashed=1;" vertex="1" parent="WIyWlLk6GJQsqaUBKTNV-1">
          <mxGeometry x="670" y="470" width="60" height="30" as="geometry" />
        </mxCell>
        <mxCell id="Vc-2eKz6okamP6ZfYOzD-37" value="接入方" style="text;html=1;strokeColor=none;fillColor=none;align=center;verticalAlign=middle;whiteSpace=wrap;rounded=0;dashed=1;fontSize=24;" vertex="1" parent="WIyWlLk6GJQsqaUBKTNV-1">
          <mxGeometry x="850" y="140" width="130" height="30" as="geometry" />
        </mxCell>
        <mxCell id="Vc-2eKz6okamP6ZfYOzD-44" value="" style="edgeStyle=orthogonalEdgeStyle;rounded=0;orthogonalLoop=1;jettySize=auto;html=1;fontSize=12;" edge="1" parent="WIyWlLk6GJQsqaUBKTNV-1" source="Vc-2eKz6okamP6ZfYOzD-39" target="Vc-2eKz6okamP6ZfYOzD-43">
          <mxGeometry relative="1" as="geometry" />
        </mxCell>
        <mxCell id="Vc-2eKz6okamP6ZfYOzD-39" value="cancel方法" style="whiteSpace=wrap;html=1;fillColor=#fff2cc;strokeColor=#d6b656;strokeWidth=2;fillWeight=-1;hachureGap=8;fillStyle=cross-hatch;sketch=1;" vertex="1" parent="WIyWlLk6GJQsqaUBKTNV-1">
          <mxGeometry x="1110" y="715" width="120" height="60" as="geometry" />
        </mxCell>
        <mxCell id="Vc-2eKz6okamP6ZfYOzD-47" value="" style="edgeStyle=orthogonalEdgeStyle;rounded=0;orthogonalLoop=1;jettySize=auto;html=1;fontSize=12;" edge="1" parent="WIyWlLk6GJQsqaUBKTNV-1" source="Vc-2eKz6okamP6ZfYOzD-43">
          <mxGeometry relative="1" as="geometry">
            <mxPoint x="370" y="1020" as="targetPoint" />
          </mxGeometry>
        </mxCell>
        <mxCell id="Vc-2eKz6okamP6ZfYOzD-49" value="否" style="edgeLabel;html=1;align=center;verticalAlign=middle;resizable=0;points=[];fontSize=12;" vertex="1" connectable="0" parent="Vc-2eKz6okamP6ZfYOzD-47">
          <mxGeometry x="-0.2246" y="2" relative="1" as="geometry">
            <mxPoint as="offset" />
          </mxGeometry>
        </mxCell>
        <mxCell id="Vc-2eKz6okamP6ZfYOzD-54" value="" style="edgeStyle=orthogonalEdgeStyle;rounded=0;orthogonalLoop=1;jettySize=auto;html=1;fontSize=12;" edge="1" parent="WIyWlLk6GJQsqaUBKTNV-1" source="Vc-2eKz6okamP6ZfYOzD-43" target="Vc-2eKz6okamP6ZfYOzD-53">
          <mxGeometry relative="1" as="geometry" />
        </mxCell>
        <mxCell id="Vc-2eKz6okamP6ZfYOzD-55" value="是" style="edgeLabel;html=1;align=center;verticalAlign=middle;resizable=0;points=[];fontSize=12;" vertex="1" connectable="0" parent="Vc-2eKz6okamP6ZfYOzD-54">
          <mxGeometry x="-0.2333" y="3" relative="1" as="geometry">
            <mxPoint as="offset" />
          </mxGeometry>
        </mxCell>
        <mxCell id="Vc-2eKz6okamP6ZfYOzD-43" value="强制授权" style="rhombus;whiteSpace=wrap;html=1;fillColor=#fff2cc;strokeColor=#d6b656;strokeWidth=2;fillWeight=-1;hachureGap=8;fillStyle=cross-hatch;sketch=1;" vertex="1" parent="WIyWlLk6GJQsqaUBKTNV-1">
          <mxGeometry x="1130" y="845" width="80" height="80" as="geometry" />
        </mxCell>
        <mxCell id="Vc-2eKz6okamP6ZfYOzD-57" value="" style="edgeStyle=orthogonalEdgeStyle;rounded=0;orthogonalLoop=1;jettySize=auto;html=1;fontSize=12;entryX=1;entryY=0.5;entryDx=0;entryDy=0;" edge="1" parent="WIyWlLk6GJQsqaUBKTNV-1" source="Vc-2eKz6okamP6ZfYOzD-53" target="Vc-2eKz6okamP6ZfYOzD-58">
          <mxGeometry relative="1" as="geometry">
            <mxPoint x="370" y="1150" as="targetPoint" />
            <Array as="points">
              <mxPoint x="1170" y="1230" />
            </Array>
          </mxGeometry>
        </mxCell>
        <mxCell id="Vc-2eKz6okamP6ZfYOzD-53" value="提示？" style="whiteSpace=wrap;html=1;fillColor=#fff2cc;strokeColor=#d6b656;strokeWidth=2;fillWeight=-1;hachureGap=8;fillStyle=cross-hatch;sketch=1;" vertex="1" parent="WIyWlLk6GJQsqaUBKTNV-1">
          <mxGeometry x="1110" y="1015" width="120" height="60" as="geometry" />
        </mxCell>
        <mxCell id="Vc-2eKz6okamP6ZfYOzD-58" value="结束" style="ellipse;whiteSpace=wrap;html=1;fillColor=#fff2cc;strokeColor=#d6b656;strokeWidth=2;fillWeight=-1;hachureGap=8;fillStyle=cross-hatch;sketch=1;" vertex="1" parent="WIyWlLk6GJQsqaUBKTNV-1">
          <mxGeometry x="310" y="1200" width="120" height="60" as="geometry" />
        </mxCell>
      </root>
    </mxGraphModel>
  </diagram>
</mxfile>
